<svg xmlns="http://www.w3.org/2000/svg" xmlns:xlink="http://www.w3.org/1999/xlink" width="500" zoomAndPan="magnify" viewBox="0 0 375 374.999991" height="500" preserveAspectRatio="xMidYMid meet" version="1.0"><defs><g/></defs><g fill="#644a2f" fill-opacity="1"><g transform="translate(155.092026, 273.555817)"><g><path d="M 12.375 -0.726562 C 12.011719 -0.726562 11.648438 -0.363281 11.648438 0.183594 C 11.648438 0.546875 12.011719 0.910156 12.375 0.910156 L 19.292969 0.910156 C 19.835938 0.910156 20.203125 0.546875 20.203125 0.183594 C 20.203125 -0.363281 19.835938 -0.726562 19.292969 -0.726562 C 18.015625 -0.726562 16.742188 -2 16.742188 -3.457031 L 16.742188 -141.59375 L 78.621094 1.636719 C 78.621094 1.820312 78.804688 1.820312 78.804688 2 C 78.804688 2 78.984375 2 78.984375 2 C 79.167969 2.183594 79.351562 2.183594 79.351562 2.183594 C 79.53125 2.183594 79.714844 2.183594 79.714844 2 C 79.714844 2 79.894531 2 79.894531 2 C 80.078125 1.820312 80.078125 1.820312 80.261719 1.636719 L 80.261719 1.457031 L 141.957031 -141.59375 L 141.957031 -3.277344 C 141.957031 -2 140.863281 -0.726562 139.40625 -0.726562 C 138.863281 -0.726562 138.5 -0.363281 138.5 0.183594 C 138.5 0.546875 138.863281 0.910156 139.40625 0.910156 L 150.511719 0.910156 C 150.875 0.910156 151.417969 0.546875 151.417969 0.183594 C 151.417969 -0.363281 150.875 -0.726562 150.511719 -0.726562 C 149.054688 -0.726562 147.960938 -2 147.960938 -3.277344 L 147.960938 -142.503906 C 147.960938 -143.957031 149.054688 -145.050781 150.511719 -145.050781 C 150.875 -145.050781 151.417969 -145.414062 151.417969 -145.960938 C 151.417969 -146.507812 150.875 -146.871094 150.511719 -146.871094 L 142.867188 -146.871094 C 142.683594 -146.871094 142.683594 -146.871094 142.503906 -146.6875 C 142.320312 -146.6875 142.320312 -146.6875 142.320312 -146.507812 C 142.136719 -146.507812 142.136719 -146.507812 142.136719 -146.324219 L 81.714844 -6.1875 L 21.292969 -146.324219 C 21.113281 -146.6875 20.746094 -146.871094 20.382812 -146.871094 L 12.375 -146.871094 C 12.011719 -146.871094 11.648438 -146.507812 11.648438 -145.960938 C 11.648438 -145.414062 12.011719 -145.050781 12.375 -145.050781 C 13.285156 -145.050781 14.195312 -144.6875 15.105469 -143.957031 L 15.105469 -3.457031 C 15.105469 -2 13.832031 -0.726562 12.375 -0.726562 Z M 12.375 -0.726562 "/></g></g></g><g fill="#644a2f" fill-opacity="1"><g transform="translate(73.875362, 246.936569)"><g><path d="M 12.375 -0.726562 C 12.011719 -0.726562 11.648438 -0.363281 11.648438 0.183594 C 11.648438 0.546875 12.011719 0.910156 12.375 0.910156 L 20.019531 0.910156 C 20.019531 0.910156 70.066406 0.910156 70.066406 0.910156 L 72.433594 0.910156 C 93 0.910156 109.925781 -15.832031 109.925781 -36.398438 C 109.925781 -56.964844 93.179688 -73.707031 72.617188 -73.890625 C 87.722656 -78.621094 98.640625 -92.816406 98.640625 -109.378906 C 98.640625 -130.125 81.898438 -146.871094 61.332031 -146.871094 L 12.375 -146.871094 C 12.011719 -146.871094 11.648438 -146.507812 11.648438 -145.960938 C 11.648438 -145.414062 12.011719 -145.050781 12.375 -145.050781 C 13.832031 -145.050781 15.105469 -143.957031 15.105469 -142.503906 L 15.105469 -3.277344 C 15.105469 -2 13.832031 -0.726562 12.375 -0.726562 Z M 58.964844 -145.050781 C 77.347656 -145.050781 92.269531 -129.035156 92.269531 -109.378906 C 92.269531 -89.722656 77.347656 -73.890625 58.964844 -73.890625 L 20.929688 -73.890625 L 20.929688 -145.050781 Z M 20.929688 -0.726562 L 20.929688 -72.070312 L 70.066406 -72.070312 C 88.449219 -72.070312 103.375 -56.054688 103.375 -36.398438 C 103.375 -16.742188 88.449219 -0.726562 70.066406 -0.726562 Z M 20.929688 -0.726562 "/></g></g></g><g fill="#bfa06a" fill-opacity="1"><g transform="translate(87.812924, 265.139747)"><g><path d="M 3.03125 0.046875 C 2.832031 0.046875 2.609375 0.0351562 2.359375 0.015625 C 2.265625 0.00390625 2.144531 0 2 0 C 1.863281 -0.0078125 1.707031 -0.015625 1.53125 -0.015625 L 0.84375 -0.015625 C 0.726562 -0.00390625 0.5625 0 0.34375 0 C 0.332031 0 0.328125 -0.0195312 0.328125 -0.0625 C 0.328125 -0.101562 0.332031 -0.125 0.34375 -0.125 C 0.601562 -0.125 0.789062 -0.140625 0.90625 -0.171875 C 1.019531 -0.203125 1.097656 -0.265625 1.140625 -0.359375 C 1.179688 -0.460938 1.203125 -0.613281 1.203125 -0.8125 L 1.203125 -5.4375 C 1.203125 -5.632812 1.179688 -5.78125 1.140625 -5.875 C 1.109375 -5.96875 1.03125 -6.03125 0.90625 -6.0625 C 0.789062 -6.101562 0.609375 -6.125 0.359375 -6.125 C 0.347656 -6.125 0.34375 -6.144531 0.34375 -6.1875 C 0.34375 -6.226562 0.347656 -6.25 0.359375 -6.25 L 0.859375 -6.234375 C 1.140625 -6.222656 1.363281 -6.21875 1.53125 -6.21875 C 1.78125 -6.21875 2.03125 -6.226562 2.28125 -6.25 C 2.570312 -6.257812 2.773438 -6.265625 2.890625 -6.265625 C 3.585938 -6.265625 4.203125 -6.128906 4.734375 -5.859375 C 5.273438 -5.597656 5.691406 -5.238281 5.984375 -4.78125 C 6.273438 -4.320312 6.421875 -3.804688 6.421875 -3.234375 C 6.421875 -2.585938 6.269531 -2.015625 5.96875 -1.515625 C 5.664062 -1.015625 5.253906 -0.628906 4.734375 -0.359375 C 4.210938 -0.0859375 3.644531 0.046875 3.03125 0.046875 Z M 2.9375 -0.109375 C 3.46875 -0.109375 3.9375 -0.21875 4.34375 -0.4375 C 4.757812 -0.664062 5.082031 -1 5.3125 -1.4375 C 5.539062 -1.875 5.65625 -2.398438 5.65625 -3.015625 C 5.65625 -3.585938 5.546875 -4.109375 5.328125 -4.578125 C 5.109375 -5.054688 4.796875 -5.429688 4.390625 -5.703125 C 3.984375 -5.984375 3.515625 -6.125 2.984375 -6.125 C 2.691406 -6.125 2.46875 -6.101562 2.3125 -6.0625 C 2.15625 -6.03125 2.039062 -5.960938 1.96875 -5.859375 C 1.894531 -5.765625 1.859375 -5.617188 1.859375 -5.421875 L 1.859375 -0.921875 C 1.859375 -0.722656 1.882812 -0.566406 1.9375 -0.453125 C 2 -0.335938 2.109375 -0.25 2.265625 -0.1875 C 2.421875 -0.132812 2.644531 -0.109375 2.9375 -0.109375 Z M 2.9375 -0.109375 "/></g></g></g><g fill="#bfa06a" fill-opacity="1"><g transform="translate(102.400181, 265.139747)"><g><path d="M 4.75 -1.484375 C 4.75 -1.503906 4.765625 -1.515625 4.796875 -1.515625 C 4.804688 -1.515625 4.820312 -1.507812 4.84375 -1.5 C 4.863281 -1.488281 4.875 -1.476562 4.875 -1.46875 C 4.8125 -1.050781 4.78125 -0.613281 4.78125 -0.15625 C 4.78125 -0.09375 4.765625 -0.0507812 4.734375 -0.03125 C 4.710938 -0.0078125 4.675781 0 4.625 0 L 0.4375 0 C 0.414062 0 0.40625 -0.0195312 0.40625 -0.0625 C 0.40625 -0.101562 0.414062 -0.125 0.4375 -0.125 C 0.6875 -0.125 0.867188 -0.140625 0.984375 -0.171875 C 1.097656 -0.203125 1.175781 -0.265625 1.21875 -0.359375 C 1.269531 -0.460938 1.296875 -0.613281 1.296875 -0.8125 L 1.296875 -5.4375 C 1.296875 -5.632812 1.269531 -5.78125 1.21875 -5.875 C 1.175781 -5.96875 1.097656 -6.03125 0.984375 -6.0625 C 0.867188 -6.101562 0.6875 -6.125 0.4375 -6.125 C 0.414062 -6.125 0.40625 -6.144531 0.40625 -6.1875 C 0.40625 -6.226562 0.414062 -6.25 0.4375 -6.25 L 4.453125 -6.25 C 4.515625 -6.25 4.546875 -6.21875 4.546875 -6.15625 L 4.5625 -4.9375 C 4.5625 -4.914062 4.539062 -4.898438 4.5 -4.890625 C 4.46875 -4.890625 4.453125 -4.898438 4.453125 -4.921875 C 4.429688 -5.273438 4.320312 -5.550781 4.125 -5.75 C 3.9375 -5.945312 3.679688 -6.046875 3.359375 -6.046875 L 2.75 -6.046875 C 2.519531 -6.046875 2.347656 -6.023438 2.234375 -5.984375 C 2.117188 -5.953125 2.039062 -5.890625 2 -5.796875 C 1.957031 -5.703125 1.9375 -5.566406 1.9375 -5.390625 L 1.9375 -3.359375 L 3.15625 -3.359375 C 3.476562 -3.359375 3.707031 -3.410156 3.84375 -3.515625 C 3.976562 -3.628906 4.046875 -3.8125 4.046875 -4.0625 C 4.046875 -4.070312 4.066406 -4.078125 4.109375 -4.078125 C 4.148438 -4.078125 4.171875 -4.070312 4.171875 -4.0625 L 4.15625 -3.25 C 4.15625 -3.050781 4.160156 -2.90625 4.171875 -2.8125 L 4.1875 -2.328125 C 4.1875 -2.316406 4.164062 -2.3125 4.125 -2.3125 C 4.082031 -2.3125 4.0625 -2.316406 4.0625 -2.328125 C 4.0625 -2.617188 3.988281 -2.828125 3.84375 -2.953125 C 3.695312 -3.085938 3.457031 -3.15625 3.125 -3.15625 L 1.9375 -3.15625 L 1.9375 -0.84375 C 1.9375 -0.65625 1.957031 -0.519531 2 -0.4375 C 2.039062 -0.351562 2.113281 -0.289062 2.21875 -0.25 C 2.320312 -0.21875 2.488281 -0.203125 2.71875 -0.203125 L 3.515625 -0.203125 C 3.835938 -0.203125 4.101562 -0.316406 4.3125 -0.546875 C 4.53125 -0.773438 4.675781 -1.085938 4.75 -1.484375 Z M 4.75 -1.484375 "/></g></g></g><g fill="#bfa06a" fill-opacity="1"><g transform="translate(115.448047, 265.139747)"><g><path d="M 1.453125 -5.078125 C 1.453125 -4.816406 1.515625 -4.585938 1.640625 -4.390625 C 1.765625 -4.203125 1.914062 -4.039062 2.09375 -3.90625 C 2.28125 -3.78125 2.535156 -3.625 2.859375 -3.4375 C 3.210938 -3.21875 3.484375 -3.035156 3.671875 -2.890625 C 3.859375 -2.753906 4.019531 -2.578125 4.15625 -2.359375 C 4.300781 -2.148438 4.375 -1.894531 4.375 -1.59375 C 4.375 -1.269531 4.289062 -0.976562 4.125 -0.71875 C 3.96875 -0.457031 3.734375 -0.25 3.421875 -0.09375 C 3.109375 0.0507812 2.738281 0.125 2.3125 0.125 C 1.800781 0.125 1.332031 0.00390625 0.90625 -0.234375 C 0.863281 -0.253906 0.835938 -0.273438 0.828125 -0.296875 C 0.816406 -0.328125 0.8125 -0.367188 0.8125 -0.421875 L 0.6875 -1.78125 C 0.675781 -1.800781 0.6875 -1.816406 0.71875 -1.828125 C 0.757812 -1.835938 0.785156 -1.828125 0.796875 -1.796875 C 0.898438 -1.316406 1.09375 -0.90625 1.375 -0.5625 C 1.664062 -0.21875 2.054688 -0.046875 2.546875 -0.046875 C 2.878906 -0.046875 3.160156 -0.132812 3.390625 -0.3125 C 3.617188 -0.5 3.734375 -0.789062 3.734375 -1.1875 C 3.734375 -1.488281 3.664062 -1.75 3.53125 -1.96875 C 3.394531 -2.1875 3.234375 -2.367188 3.046875 -2.515625 C 2.859375 -2.660156 2.597656 -2.828125 2.265625 -3.015625 C 1.953125 -3.210938 1.703125 -3.378906 1.515625 -3.515625 C 1.328125 -3.660156 1.171875 -3.835938 1.046875 -4.046875 C 0.921875 -4.265625 0.859375 -4.515625 0.859375 -4.796875 C 0.859375 -5.128906 0.945312 -5.414062 1.125 -5.65625 C 1.300781 -5.894531 1.53125 -6.070312 1.8125 -6.1875 C 2.09375 -6.300781 2.394531 -6.359375 2.71875 -6.359375 C 3.113281 -6.359375 3.503906 -6.28125 3.890625 -6.125 C 3.992188 -6.082031 4.046875 -6.023438 4.046875 -5.953125 L 4.109375 -4.796875 C 4.109375 -4.773438 4.09375 -4.765625 4.0625 -4.765625 C 4.03125 -4.765625 4.007812 -4.773438 4 -4.796875 C 3.945312 -5.140625 3.800781 -5.457031 3.5625 -5.75 C 3.332031 -6.050781 3 -6.203125 2.5625 -6.203125 C 2.1875 -6.203125 1.90625 -6.09375 1.71875 -5.875 C 1.539062 -5.664062 1.453125 -5.398438 1.453125 -5.078125 Z M 1.453125 -5.078125 "/></g></g></g><g fill="#bfa06a" fill-opacity="1"><g transform="translate(128.036089, 265.139747)"><g><path d="M 1.984375 -0.8125 C 1.984375 -0.613281 2.003906 -0.460938 2.046875 -0.359375 C 2.085938 -0.265625 2.164062 -0.203125 2.28125 -0.171875 C 2.394531 -0.140625 2.582031 -0.125 2.84375 -0.125 C 2.863281 -0.125 2.875 -0.101562 2.875 -0.0625 C 2.875 -0.0195312 2.863281 0 2.84375 0 C 2.644531 0 2.484375 -0.00390625 2.359375 -0.015625 L 0.953125 -0.015625 C 0.835938 -0.00390625 0.675781 0 0.46875 0 C 0.445312 0 0.4375 -0.0195312 0.4375 -0.0625 C 0.4375 -0.101562 0.445312 -0.125 0.46875 -0.125 C 0.71875 -0.125 0.898438 -0.140625 1.015625 -0.171875 C 1.140625 -0.203125 1.222656 -0.265625 1.265625 -0.359375 C 1.304688 -0.460938 1.328125 -0.613281 1.328125 -0.8125 L 1.328125 -5.4375 C 1.328125 -5.632812 1.304688 -5.78125 1.265625 -5.875 C 1.222656 -5.96875 1.140625 -6.03125 1.015625 -6.0625 C 0.898438 -6.101562 0.71875 -6.125 0.46875 -6.125 C 0.445312 -6.125 0.4375 -6.144531 0.4375 -6.1875 C 0.4375 -6.226562 0.445312 -6.25 0.46875 -6.25 L 0.953125 -6.234375 C 1.234375 -6.222656 1.46875 -6.21875 1.65625 -6.21875 C 1.851562 -6.21875 2.09375 -6.222656 2.375 -6.234375 L 2.84375 -6.25 C 2.863281 -6.25 2.875 -6.226562 2.875 -6.1875 C 2.875 -6.144531 2.863281 -6.125 2.84375 -6.125 C 2.59375 -6.125 2.410156 -6.101562 2.296875 -6.0625 C 2.179688 -6.03125 2.097656 -5.960938 2.046875 -5.859375 C 2.003906 -5.765625 1.984375 -5.617188 1.984375 -5.421875 Z M 1.984375 -0.8125 "/></g></g></g><g fill="#bfa06a" fill-opacity="1"><g transform="translate(139.034765, 265.139747)"><g><path d="M 4.078125 0.125 C 3.347656 0.125 2.707031 -0.0195312 2.15625 -0.3125 C 1.613281 -0.613281 1.195312 -1.015625 0.90625 -1.515625 C 0.625 -2.015625 0.484375 -2.5625 0.484375 -3.15625 C 0.484375 -3.800781 0.644531 -4.363281 0.96875 -4.84375 C 1.300781 -5.332031 1.753906 -5.707031 2.328125 -5.96875 C 2.898438 -6.226562 3.535156 -6.359375 4.234375 -6.359375 C 4.585938 -6.359375 4.921875 -6.320312 5.234375 -6.25 C 5.546875 -6.1875 5.804688 -6.09375 6.015625 -5.96875 C 6.066406 -5.945312 6.097656 -5.925781 6.109375 -5.90625 C 6.117188 -5.882812 6.125 -5.832031 6.125 -5.75 L 6.25 -4.5625 C 6.25 -4.550781 6.226562 -4.539062 6.1875 -4.53125 C 6.15625 -4.519531 6.132812 -4.53125 6.125 -4.5625 C 5.820312 -5.65625 5.128906 -6.203125 4.046875 -6.203125 C 3.523438 -6.203125 3.050781 -6.082031 2.625 -5.84375 C 2.195312 -5.601562 1.863281 -5.265625 1.625 -4.828125 C 1.382812 -4.398438 1.265625 -3.894531 1.265625 -3.3125 C 1.265625 -2.738281 1.378906 -2.203125 1.609375 -1.703125 C 1.835938 -1.203125 2.1875 -0.796875 2.65625 -0.484375 C 3.125 -0.179688 3.6875 -0.03125 4.34375 -0.03125 C 4.820312 -0.03125 5.15625 -0.117188 5.34375 -0.296875 C 5.539062 -0.484375 5.640625 -0.800781 5.640625 -1.25 C 5.640625 -1.59375 5.617188 -1.832031 5.578125 -1.96875 C 5.535156 -2.113281 5.4375 -2.207031 5.28125 -2.25 C 5.132812 -2.289062 4.875 -2.3125 4.5 -2.3125 C 4.457031 -2.3125 4.4375 -2.34375 4.4375 -2.40625 C 4.4375 -2.425781 4.441406 -2.441406 4.453125 -2.453125 C 4.460938 -2.472656 4.472656 -2.484375 4.484375 -2.484375 C 5.003906 -2.453125 5.425781 -2.4375 5.75 -2.4375 C 6.050781 -2.4375 6.378906 -2.441406 6.734375 -2.453125 C 6.753906 -2.453125 6.769531 -2.441406 6.78125 -2.421875 C 6.789062 -2.410156 6.796875 -2.398438 6.796875 -2.390625 C 6.796875 -2.335938 6.773438 -2.3125 6.734375 -2.3125 C 6.566406 -2.320312 6.453125 -2.300781 6.390625 -2.25 C 6.328125 -2.207031 6.285156 -2.109375 6.265625 -1.953125 C 6.242188 -1.804688 6.234375 -1.539062 6.234375 -1.15625 C 6.234375 -0.851562 6.242188 -0.632812 6.265625 -0.5 C 6.296875 -0.375 6.3125 -0.296875 6.3125 -0.265625 C 6.3125 -0.222656 6.300781 -0.195312 6.28125 -0.1875 C 6.269531 -0.175781 6.242188 -0.164062 6.203125 -0.15625 C 5.367188 0.03125 4.660156 0.125 4.078125 0.125 Z M 4.078125 0.125 "/></g></g></g><g fill="#bfa06a" fill-opacity="1"><g transform="translate(153.851934, 265.139747)"><g><path d="M 7.046875 -6.25 C 7.054688 -6.25 7.0625 -6.226562 7.0625 -6.1875 C 7.0625 -6.144531 7.054688 -6.125 7.046875 -6.125 C 6.765625 -6.125 6.554688 -6.046875 6.421875 -5.890625 C 6.296875 -5.742188 6.234375 -5.5 6.234375 -5.15625 L 6.234375 0.125 C 6.234375 0.132812 6.21875 0.140625 6.1875 0.140625 C 6.15625 0.148438 6.132812 0.148438 6.125 0.140625 L 1.515625 -5.4375 L 1.4375 -5.53125 L 1.4375 -1.09375 C 1.4375 -0.738281 1.492188 -0.488281 1.609375 -0.34375 C 1.734375 -0.195312 1.929688 -0.125 2.203125 -0.125 C 2.222656 -0.125 2.234375 -0.101562 2.234375 -0.0625 C 2.234375 -0.0195312 2.222656 0 2.203125 0 C 2.035156 0 1.910156 -0.00390625 1.828125 -0.015625 L 0.8125 -0.015625 C 0.726562 -0.00390625 0.59375 0 0.40625 0 C 0.394531 0 0.390625 -0.0195312 0.390625 -0.0625 C 0.390625 -0.101562 0.394531 -0.125 0.40625 -0.125 C 0.695312 -0.125 0.898438 -0.195312 1.015625 -0.34375 C 1.140625 -0.488281 1.203125 -0.738281 1.203125 -1.09375 L 1.203125 -5.765625 C 0.941406 -6.003906 0.675781 -6.125 0.40625 -6.125 C 0.382812 -6.125 0.375 -6.144531 0.375 -6.1875 C 0.375 -6.226562 0.382812 -6.25 0.40625 -6.25 L 0.78125 -6.234375 C 0.863281 -6.234375 0.972656 -6.234375 1.109375 -6.234375 C 1.253906 -6.234375 1.375 -6.234375 1.46875 -6.234375 C 1.5625 -6.242188 1.632812 -6.25 1.6875 -6.25 C 1.738281 -6.25 1.773438 -6.238281 1.796875 -6.21875 C 1.828125 -6.195312 1.867188 -6.144531 1.921875 -6.0625 C 2.003906 -5.9375 2.082031 -5.828125 2.15625 -5.734375 L 6.015625 -1 L 6.015625 -5.15625 C 6.015625 -5.5 5.953125 -5.742188 5.828125 -5.890625 C 5.710938 -6.046875 5.519531 -6.125 5.25 -6.125 C 5.238281 -6.125 5.234375 -6.144531 5.234375 -6.1875 C 5.234375 -6.226562 5.238281 -6.25 5.25 -6.25 L 5.640625 -6.234375 C 5.835938 -6.222656 6 -6.21875 6.125 -6.21875 C 6.25 -6.21875 6.414062 -6.222656 6.625 -6.234375 Z M 7.046875 -6.25 "/></g></g></g></svg>