<svg width="315" height="304" viewBox="0 0 315 304" fill="none" xmlns="http://www.w3.org/2000/svg">
<path d="M193 262.3C192.8 262.3 192.5 262.4 192.3 262.4C186.2 264.2 180 265.4 173.6 265.9C168.5 266.3 163.4 266.2 158.3 265.8C151.9 265.2 145.6 264.3 139.3 263.3C137.9 263.1 136.4 263.3 134.9 263.5C134.6 263.5 134.3 263.8 134 264C131.5 265.7 129.4 267.9 127.7 270.4C125.6 273.5 123.8 276.7 122.2 280.1C121.2 282.3 120.1 284.4 119 286.5C118.1 288.1 117.1 289.7 115.8 291C112.2 294.7 107.8 296.1 102.8 296C102.4 296 102 295.9 101.6 295.8C100 295.3 99.2 294.2 99.4 292.5C99.6 291.1 99.9 289.7 100.3 288.3C101.2 285.2 102.1 282 103 278.9C104.2 274.6 106.7 271.3 110.3 268.7C111.8 267.6 113.3 266.8 114.9 265.8C115.1 265.7 115.3 265.5 115.5 265.3C114.8 265.3 114.2 265.3 113.5 265.3C109.9 265.3 106.3 265.4 102.8 265.3C98.4 265.2 94.1 265.1 89.7 265C89.1 265 88.8 265.2 88.5 265.6C86.1 268.7 84.4 272.1 82.8 275.5C81.6 278.2 80.1 280.8 78.7 283.3C78.1 284.3 77.4 285.3 76.5 286.1C75.1 287.6 73.3 287.6 71.8 286.3C71 285.6 70.3 284.8 69.7 283.9C68.4 282 66.9 280.2 65.2 278.6C62.5 276.2 61.6 273.1 62.1 269.6C62.2 268.7 62.3 267.8 62.4 266.8C62 266.6 61.6 266.4 61.2 266.3C59.2 265.4 57.6 264.1 56.5 262.1C55.3 259.7 55.5 257.8 57.8 255.8C58.6 255.1 59.5 254.7 60.5 254.2C61.8 253.5 63.2 253 64.5 252.4C65.4 252 66.3 251.4 67 250.6C66.9 250.4 66.7 250.1 66.6 249.9C65.5 248.3 65.4 246.7 66.5 245C67 244.2 67.5 243.5 68 242.8C68.7 241.8 69.4 240.9 70.1 239.9C70.5 239.4 70.8 239 71.3 238.7C72.5 237.8 73.8 237.6 75.2 238.1C76.5 238.6 77.6 239.4 78.5 240.4C79.7 241.9 80.7 243.5 81.5 245.3C82.3 247.1 83.1 249 83.9 250.9C84.8 252.9 85.8 254.7 87.1 256.4C87.5 256.9 87.9 257.2 88.6 257.3C89.3 257.3 89.9 257.6 90.5 257.9C94.6 259.7 98.9 261 103.3 261.7C105.9 262.1 108.5 262.5 111.1 262.6C113.5 262.7 115.9 262.6 118.2 262.4C121.9 262.2 125.5 261.8 129.2 261.6C129.4 261.6 129.5 261.5 129.7 261.3C129.4 261.2 129.1 261.1 128.8 261C111.5 256.8 96.4 248.3 83.1 236.6C81.9 235.5 80.7 234.3 79.5 233.2C79.2 232.9 78.9 232.6 78.5 232.4C74.9 230.3 71.2 228.8 67 228.4C62.9 228 59 228.7 55.5 230.9C54.1 231.8 52.8 232.9 52 234.3C50.3 237.2 51.7 240.7 54.8 241.7C56.4 242.2 57.9 241.5 58.5 240.1C58.9 239 58.6 238 57.6 237.7C57.2 237.6 56.8 237.7 56.4 237.7C56.1 237.7 55.9 238 55.6 238C55.3 238 54.9 237.9 54.8 237.7C54.7 237.5 54.7 237 54.8 236.8C55.4 235.8 56.7 235.3 57.8 235.8C59.8 236.6 61 238.2 60.1 240.7C59.3 243.1 56.8 244.3 54.4 243.7C49.9 242.5 47.7 237.5 49.9 233.4C51.1 231.1 53 229.5 55.3 228.2C55.6 228 55.9 227.8 56.2 227.7C56.2 227.7 56.2 227.6 56.2 227.5C55 227.4 53.8 227.2 52.6 227.1C50.1 226.8 47.6 226.1 45.3 225.1C42.9 224.1 40.8 222.7 39.3 220.7C38.5 219.6 37.9 218.4 37.7 217.1C37.6 216.5 37.6 215.9 37.6 215.4C37.8 213.8 38.7 212.9 40.4 213C41.6 213 42.8 213.1 44 213.1C49.4 213.2 54.7 213.9 59.8 215.8C61.5 216.5 63.2 217.3 65 218C65 218 65 217.9 65 217.8C61.3 212.6 57.8 207.2 53.8 202.3C52 200.2 50.1 198.1 47.9 196.4C45.6 194.6 43.1 193.2 40.2 192.7C38.8 192.5 37.3 192.5 35.9 192.9C32.9 193.9 31.2 196 30.6 199C30 201.9 30.9 204.3 32.8 206.3C33.2 206.7 33.8 207.1 34.3 207.4C36.2 208.4 37.7 207.8 39 206.4C40.3 204.9 40.5 202.7 39.4 201.3C39.2 201 38.9 200.7 38.5 200.5C38.1 200.3 37.7 200.2 37.3 200.5C36.6 201 36 200.9 35.7 200.3C35.4 199.7 35.5 199 36.2 198.6C37.5 197.9 38.8 197.7 40.1 198.5C41.4 199.4 42.2 200.7 42.5 202.2C43.2 205.8 40.7 209.5 37.2 210.3C35.5 210.7 34 210.3 32.5 209.4C29.7 207.7 28.2 205.2 27.7 202C27.1 198.2 28.7 192.8 33.6 190.4C36.3 189.1 39 189 41.8 189.7C45.4 190.5 48.5 192.4 51.2 194.9C51.8 195.5 52.4 196.1 53.2 196.5C53 196.2 52.9 195.9 52.7 195.6C50.4 191.4 47.5 187.8 44.2 184.4C43.6 183.8 42.9 183.2 42.4 182.5C41.4 181.3 40 181 38.6 181.3C37 181.6 35.4 182.1 33.8 182.6C30.8 183.5 27.9 184.4 24.9 185.2C22.1 185.9 19.2 186.1 16.3 185.3C12.1 184.2 8.8 181.9 6.9 177.8C6.4 176.6 6.1 175.4 6.1 174.1C6.2 172.4 7.1 171.3 8.7 171C10.4 170.7 12.1 170.6 13.9 170.4C16.2 170.1 18.6 169.8 20.9 169.6C24.3 169.3 27.8 169.5 31.3 170.6C31.1 170.3 31 170.1 30.8 169.9C27.7 166.3 24.7 162.7 21.6 159.1C21.4 158.9 21.2 158.6 21 158.5C19.8 157.7 18.6 157 17.4 156.3C15.4 155.1 13.2 154.8 11 154.6C9.3 154.4 7.6 154.2 5.9 153.9C4.2 153.6 2.7 152.7 1.5 151.5C1.07288e-06 150 -0.3 148.5 0.599999 146.6C1.9 143.7 3.9 141.5 6.6 139.8C7.5 139.2 8.4 138.6 9.3 138.1C9.1 137.3 8.9 136.5 8.7 135.8C8.5 134.8 8.7 134 9.4 133.3C10 132.6 10.7 132 11.5 131.4C13.9 129.8 16.5 128.6 19.1 127.5C19.6 127.3 20.2 127.1 20.8 127C23.4 126.4 25.9 125.9 28.5 125.3C28.8 125.2 29.1 125.2 29.5 125.1C31.2 124.9 32.5 125.7 33.1 127.2C33.3 127.7 33.4 128.1 33.6 128.7C34.2 128.6 34.8 128.3 35.4 128.4C38.7 128.7 41.4 130.1 42.8 133.3C43.6 135.2 43.5 137.1 42.1 138.7C41.4 139.6 40.5 140.4 39.6 141.1C37.6 142.7 35.6 144.3 33.6 145.9C31.5 147.6 29.8 149.7 28.5 152C28.2 152.6 28 153.1 28.4 153.8C28.9 154.8 29.3 155.8 29.6 156.8C31.2 161.4 33.3 165.8 35.4 170.2C35.5 170.4 35.7 170.6 35.9 170.8C35.8 170.3 35.7 169.8 35.6 169.3C34.9 166 34.8 162.8 35.5 159.5C35.9 157.5 36.8 155.8 38.3 154.3C39.7 152.9 41.3 152 43.3 151.9C43.5 151.9 43.7 151.8 44 151.8C44 151.2 44 150.6 44 150C44 147.3 43.9 144.5 44.1 141.8C44.3 138.6 44.7 135.3 45 132.1C45.5 126.9 47 122 48 116.9C49 111.8 48.7 106.8 46.7 102C46.5 101.4 46.2 100.9 45.9 100.4C44 97.3 40.6 95.3 36.2 96.8C34.8 97.3 33.6 98 32.5 99C30.3 101.2 29.1 103.8 28.9 106.9C28.7 110.3 30.6 113.1 33.9 114.1C36 114.8 37.9 114.2 39.4 112.6C40.4 111.5 41.1 110.2 41.3 108.7C41.5 107.5 41.3 106.5 40.5 105.5C39.5 104.2 37.8 104.2 36.6 105.3C36.3 105.6 36 105.9 35.6 106.2C35.2 106.5 34.7 106.5 34.3 106.2C33.9 105.9 33.7 105.5 33.9 105C34.2 103.9 34.9 103 35.9 102.4C38.4 101 41.4 101.8 43 104.2C44.1 105.9 44.3 107.7 43.9 109.6C43.5 111.5 42.7 113.2 41.4 114.6C39.1 117.1 36.2 118 32.8 116.9C28.8 115.6 25.7 112.1 25.8 107.2C25.9 104.2 26.9 101.6 28.7 99.2C31.1 95.9 34.4 94 38.5 93.8C42.1 93.6 45 95.1 47.2 97.9C48.6 99.7 49.4 101.8 50.1 103.9C50.2 104.2 50.3 104.6 50.4 104.9C50.5 104.8 50.6 104.8 50.6 104.8C52.4 101 53.9 97.2 54.2 92.9C54.3 91.2 54.2 89.4 53.6 87.8C53.4 87.1 53 86.5 52.6 85.9C52.2 85.2 51.5 84.7 50.8 84.4C49.9 84 49 84.2 48.4 84.9C47.8 85.6 47.5 86.9 47.9 87.6C48.3 88.4 49 88.5 49.7 88C50.1 87.7 50.6 87.5 51.1 87.8C51.5 88.1 51.5 88.8 51.2 89.4C50.7 90.2 49.6 90.7 48.6 90.5C47.3 90.2 46.4 89.5 45.9 88.3C45 85.8 46.6 82.7 49.1 82C50.1 81.7 51 81.8 52 82.2C53.6 82.9 54.8 84.1 55.5 85.7C56.6 87.9 56.9 90.3 56.8 92.8C56.8 93.7 56.7 94.5 56.6 95.6C56.9 95.2 57.1 94.9 57.3 94.7C59.9 90.6 62.8 86.8 66 83.3C66.3 83 66.6 82.5 66.7 82.1C67.7 78.1 67.8 74.1 66.7 70.1C66.2 68.3 65.3 66.6 64 65.2C61.9 62.9 58.8 62.3 56 63.7C53 65.3 51.1 68.7 51.5 72.1C51.7 73.9 52.6 75.2 54.3 76C55.1 76.4 55.9 76.4 56.7 76.1C58.4 75.4 60.1 72.7 60 70.8C60 70.1 59.7 69.5 59.1 69.1C58.4 68.6 57.8 68.6 57.2 69.3C57 69.6 56.7 69.9 56.5 70.1C56 70.5 55.4 70.6 55 70.3C54.5 70 54.4 69.4 54.6 68.7C55.3 66.8 57.6 65.7 59.5 66.4C61.4 67.1 62.7 69.1 62.5 71.3C62.3 73.9 61 76 59 77.5C57.1 79 55 79.1 52.9 77.9C50.1 76.3 48.7 74 48.7 70.7C48.8 65.9 52.5 61.2 57.3 60.3C60.7 59.7 63.6 60.6 65.9 63.3C68.1 65.8 69.2 68.9 69.6 72.2C69.7 72.9 69.8 73.6 70 74.4C70.1 74.1 70.2 73.7 70.3 73.4C71.2 69.4 71.1 65.4 70.4 61.3C69.8 57.6 69.1 54 68.5 50.3C67.7 45.2 68 40.2 69.5 35.3C70 33.7 70.4 32 70.9 30.4C71.5 28.2 72.8 27.9 74.5 29.2C78.5 32.2 82.1 35.6 84.8 39.9C86.5 42.7 87.8 45.7 88.2 49C88.6 51.8 88.2 54.4 87.1 57C86.3 59 85.2 60.9 83.9 62.7C82.1 65.2 80.2 67.7 78.4 70.2C78.1 70.6 77.8 71 77.7 71.5C78 71.2 78.3 70.9 78.7 70.6C83.4 66.2 87.5 61.3 91.2 56C93.7 52.4 96.3 48.7 98.9 45.1C99.3 44.5 99.7 43.8 99.9 43.1C100.8 40.5 101.6 37.8 101.8 35C102 32.9 101.8 30.8 101.1 28.8C100.7 27.6 100 26.5 99 25.7C97.8 24.8 96.6 24.7 95.2 25.4C92.2 27 91.5 31.7 93.8 34.1C94 34.3 94.2 34.5 94.5 34.7C95.4 35.3 96.5 35.4 97.2 34.9C98 34.3 98.4 32.8 98 31.8C97.7 31 97.3 30.8 96.5 31.1C95.6 31.4 95.1 31.3 94.8 30.8C94.5 30.2 94.6 29.5 95.1 28.9C95.9 28.1 96.8 28 97.8 28.3C98.4 28.5 99 28.8 99.4 29.2C100.8 30.7 101.1 32.4 100.5 34.3C99.9 36.1 98.8 37.5 96.8 37.8C95.6 38 94.4 37.8 93.4 37.1C91.7 36.1 90.5 34.7 90 32.8C89.3 29.9 89.7 27.3 91.6 24.9C92.1 24.2 92.8 23.6 93.5 23.2C95.9 21.6 98.7 21.9 100.7 23.9C102.4 25.5 103.2 27.5 103.6 29.7C104.1 32.3 104 34.8 103.5 37.3C103.4 37.6 103.4 38 103.5 38.4C103.6 38.3 103.8 38.1 103.9 37.9C108 32.1 112.6 26.8 117.4 21.7C118.2 20.8 118.3 20.8 117.7 19.7C117.3 19 117 18.4 116.4 17.8C114.7 16 112.9 14.2 111.1 12.4C110.2 11.5 109.3 10.6 108.6 9.4C107.4 7.3 108 5.3 110.1 4.1C110.8 3.7 111.5 3.4 112.3 3.2C114.9 2.6 117.5 2.50001 120.1 3.30001C120.9 3.60001 121.7 4 122.4 4.4C122.9 4.7 123.4 5 124 5.4C124.5 5 124.9 4.70001 125.4 4.30001C127 3.20001 128.5 3.2 129.9 4.5C131.1 5.5 132.3 6.60001 133.4 7.80001C134.5 8.80001 135 10.1 134.9 11.6C134.9 11.9 134.9 12.2 134.9 12.5C135.9 13.1 136.9 13.6 137.9 14.2C139 14.8 140.1 15.3 141.1 16C143 17.3 144.1 19.1 144.2 21.4C144.3 23.5 144 25.4 143 27.3C141.6 29.9 139.2 31 136.3 30.5C134.9 30.3 133.7 29.8 132.5 29.1C131.1 28.3 129.6 27.4 128.2 26.6C127.1 26 126 25.5 124.9 24.9C124.5 24.7 124.2 24.7 123.8 24.8C118.3 27 113.6 30.2 109.7 34.6C109.1 35.2 108.6 35.9 107.8 36.8C108.2 36.6 108.5 36.6 108.7 36.5C115.8 33.1 122.8 33.5 129.7 37.4C130.6 37.9 131.5 38.7 132.3 39.3C132.7 39.7 133.1 39.7 133.7 39.6C134.8 39.3 135.9 39 137 38.8C138.3 38.5 139.4 37.6 140.5 36.8C142.4 35.6 144.2 34.2 146 33C148.2 31.5 150.4 29.9 152.2 28C153.3 26.9 154.2 25.6 154.8 24.2C155.3 23 155.5 21.8 155.4 20.6C155.4 19.8 155.1 19 154.4 18.5C153.4 17.7 152.2 18.3 152 19.5C152 19.7 151.9 20 151.9 20.2C151.7 20.8 151.2 21.2 150.7 21.2C150.1 21.2 149.7 20.7 149.6 20.1C149.3 18 151 16 153.1 15.8C155.4 15.6 157.5 17.7 157.7 20.2C157.8 21.8 157.5 23.3 156.9 24.8C156 26.9 154.8 28.7 153.1 30.1C151.9 31.2 150.6 32.2 149.2 33.4C149.6 33.3 149.8 33.3 150 33.3C153 32.5 156 31.8 158.9 30.6C163.1 28.9 167 26.7 170.2 23.3C172.7 20.7 174.6 17.7 175.3 14.1C175.6 12.2 175.7 10.3 175 8.4C174.1 5.8 172.4 4.1 169.7 3.7C166.9 3.2 164.5 4.10001 162.8 6.30001C160.8 8.80001 160.6 12.4 162.3 15.1C162.5 15.4 162.7 15.6 162.9 15.9C164.1 17.2 165.3 17.3 166.8 16.3C168.3 15.3 169.1 14 169.2 12.2C169.2 11.5 169 11 168.4 10.6C168 10.3 167.5 10.3 167.1 10.7C166.8 11 166.6 11.2 166.3 11.5C165.7 12 165.2 12 164.7 11.6C164.2 11.2 164.1 10.7 164.4 10C165.3 7.7 168 6.9 170.1 8.2C171.7 9.2 172.5 11.1 172.1 13.3C171.5 16.1 170 18.3 167.4 19.6C165.5 20.5 163.7 20.4 161.9 19.3C159.7 17.9 158.5 15.9 158 13.4C156.7 6.6 162 0.400001 168.9 0.600001C173.5 0.700001 177.4 4.3 178.1 9C178.7 12.8 178 16.4 176.3 19.8C173.8 24.6 170 28.1 165.3 30.7C163.9 31.4 162.5 32 161.1 32.7C160.8 32.9 160.5 33 160.2 33.3C161.4 33.1 162.5 33 163.7 32.8C167.6 32.2 171.4 31.5 175.3 31C181 30.3 186.8 29.7 192.5 29.1C198.1 28.5 203.7 28.4 209.3 28.7C210.5 28.8 211.4 28.4 211.9 27.3C212.4 26.2 213.1 25.2 213.6 24.2C215.7 19.9 218.6 16.2 221.9 12.8C223.4 11.3 224.9 9.9 226.5 8.5C228.6 6.7 230.4 7 231.8 9.4C235.5 15.7 233.8 22.7 229.3 26.7C227.6 28.3 225.6 29.5 223.4 30.2C223.1 30.3 222.9 30.4 222.4 30.6C223.1 30.8 223.6 30.9 224.1 31C228.8 32.1 233.1 34.1 237.5 36C241 37.6 244.6 39.1 248.1 40.6C248.6 40.8 249 40.8 249.4 40.7C250.8 40.3 252.3 39.9 253.7 39.6C254.7 39.4 255.6 39.1 256.4 38.5C257.5 37.7 258.5 37 259.5 36.1C261.2 34.7 262.9 33.5 265 32.6C266.3 32.1 267.7 31.9 269 32.3C269.5 32.5 269.9 32.7 270.3 33C271.5 34 271.7 35.3 270.8 36.6C270.4 37.3 269.8 37.9 269.3 38.6C269.6 38.8 270 39 270.3 39.2C271 39.6 271.7 39.9 272.4 40.3C274.9 41.8 275.8 44.2 274.9 47C274.5 48.2 273.9 49.4 273.2 50.5C271.9 52.5 270.3 54.3 268.5 55.9C266.7 57.5 264.6 58.7 262.1 58.8C262 59 261.9 59.3 261.8 59.5C261.3 60.9 260.5 62 259.3 62.9C257.3 64.3 255.2 65.8 253.1 67C251.4 68 249.5 68.5 247.5 67.6C246.3 68.8 244.7 69.5 243.1 70C243.1 70.1 243.1 70.2 243.1 70.3C244.5 71.9 246 73.4 247.4 75C247.5 75.1 247.7 75.3 247.8 75.4C251.1 77.8 254.3 80.2 257.7 82.5C259.7 83.9 262 84.8 264.4 85.4C272.4 87.2 279.7 82.2 280.8 74.1C281.1 71.6 280.6 69.3 279 67.3C276.9 64.7 273.6 64.5 271.3 66.9C270.1 68.1 269.4 69.5 269.4 71.3C269.4 73 270.6 74.5 272.2 75C273.7 75.4 275.1 74.6 275.6 73.1C275.7 72.8 275.7 72.5 275.8 72.2C276.1 71.4 277.1 71.3 277.5 72C277.7 72.4 277.8 72.9 277.8 73.3C277.8 75.9 275.2 78.1 272.5 77.9C268.2 77.5 265.4 73.5 266.6 69.1C267.4 66.3 269 64.3 271.6 63C274.4 61.6 278.1 62.2 280.3 64.4C282.7 66.7 283.8 69.7 283.5 73C282.9 79.8 279.5 84.6 273.2 87.2C269.5 88.8 265.7 88.6 262 87.3C261.6 87.2 261.3 87 260.9 86.9C260.6 86.8 260.2 86.6 259.7 86.4C259.9 86.7 259.9 86.8 260 86.9C262.7 89.9 265.4 92.8 268 95.9C271.3 99.8 274.7 103.5 278.6 106.8C280.4 108.3 282.3 109.7 284.4 110.7C285.4 111.2 286.5 111.6 287.6 111.7C290.2 112 292.1 111 293.5 108.1C294.3 106.6 294.4 104.9 294.2 103.2C294 101.6 292.6 100.2 291.2 100C289.4 99.8 287.4 101.5 287.3 103.3C287.3 103.6 287.4 104 287.6 104.3C287.7 104.5 287.8 104.7 288 104.8C288.5 105.5 288.6 106 288.2 106.5C287.8 107 287.2 107 286.4 106.4C285.2 105.6 284.7 104.4 284.8 103C285 99.6 287.9 97 291 97.1C293.5 97.2 295.2 98.6 296.4 100.7C297.1 102 297.2 103.3 297.1 104.7C297 107 296.4 109.2 294.9 111C292.5 114.1 289.4 115 285.6 114.2C283.8 113.8 282.2 113 280.7 112C278.9 110.8 277.2 109.5 275.3 108.2C275.4 108.4 275.5 108.7 275.7 108.9C279.4 114.5 284.5 118 291.1 119.1C294 119.6 296.9 120.1 299.7 121C304.7 122.6 308.4 125.6 310.9 130.1C312.4 132.8 313.6 135.6 314.2 138.7C314.3 139.4 314.4 140.1 314.3 140.7C314.2 141.8 313.5 142.5 312.4 142.5C309.5 142.5 306.6 142.8 303.7 142.4C301 142 298.5 141.1 296.2 139.8C296.1 139.7 295.9 139.7 295.7 139.6C295.7 140.1 296 140.4 296.1 140.7C297.9 143.9 299.3 147.3 299.8 150.9C300.8 157.5 298.8 163.2 293.7 167.6C292.5 168.6 291.1 169.4 289.5 169.8C289.2 169.9 288.8 169.9 288.4 170C286.7 170.1 285.8 169.3 285.6 167.7C285.5 166.9 285.4 166.1 285.3 165.2C284.8 162.2 284.2 159.2 283.8 156.1C283.4 153.2 283.1 150.3 283 147.4C282.9 143.1 283 138.8 283 134.5C283 130.1 282.3 125.9 280.8 121.8C280.2 120 279.4 118.4 278.1 117C276.6 115.3 275.1 113.5 273.5 111.8C270.6 108.8 267.6 105.8 264.7 102.8C264.8 103 264.8 103.2 264.9 103.4C268.6 112 271.4 120.9 273.2 130C274.1 134.7 274.7 139.4 275.1 144.2C275.5 149 275.6 153.9 275.4 158.7C275.4 160.2 275.3 161.7 275.1 163.1C275 163.8 275.1 164.5 275.4 165.1C276.3 167.5 277.7 169.6 279.6 171.3C283 174.2 286.9 176.2 291.3 177C294.2 177.5 297 177.2 299.7 176.2C301.9 175.3 303.6 173.8 304.9 171.8C305.3 171.1 305.6 170.4 305.5 169.5C305.5 168.7 305.1 168.1 304.4 167.8C302.8 167 301.1 167.7 300.6 169.4C300.4 170.1 300.5 170.4 301.3 170.6C302.3 170.9 302.7 171.3 302.5 171.9C302.4 172.6 301.6 173 300.8 172.9C299.2 172.7 298.1 171.6 298 169.9C297.9 166.8 300.8 164.5 303.8 165.2C306.8 165.9 308.2 168.4 307.3 171.3C307 172.1 306.6 173 306.1 173.7C304 176.7 301.1 178.4 297.5 179C296.1 179.2 294.7 179.2 293.2 179.4C293.4 179.5 293.6 179.7 293.8 179.8C295.8 180.8 297.8 181.8 299.6 183.2C302.7 185.5 304.5 188.6 304.9 192.4C305.2 194.8 304.8 197.2 304.2 199.6C304 200.3 303.8 201.1 303.5 201.8C302.9 203.1 301.9 203.6 300.5 203.2C300.3 203.1 300 203.1 299.8 203C297.7 202.2 295.6 201.5 293.5 200.7C289.6 199.2 286 197.1 282.6 194.5C279 191.7 276.4 188.2 274.8 183.9C274.7 183.7 274.6 183.4 274.5 183.2C274.5 183.1 274.4 183.1 274.3 182.9C274.2 183.1 274.2 183.2 274.2 183.3C273.9 187.5 274 191.7 274.6 195.8C275.5 201.3 277.1 206.6 280 211.5C281.1 213.4 282.4 215 283.9 216.5C285.1 217.6 286.4 218.6 288.1 218.9C289.7 219.3 291.2 218.9 292.4 217.6C293.9 216 294.8 214.1 294.4 211.8C294.3 210.9 293.8 210.2 293.1 209.6C292.5 209.1 292 209.1 291.4 209.5C290.3 210.2 290.1 211.7 290.8 212.8C291.2 213.4 291.2 213.8 290.9 214.2C290.5 214.6 290 214.6 289.6 214.4C288.7 214 288.2 213.4 288 212.5C287.6 210.8 288.7 208.2 290.3 207.3C291.7 206.5 293.1 206.5 294.4 207.5C296.5 209 297.1 211.1 296.8 213.6C296.6 215.6 295.7 217.3 294.5 218.8C292.4 221.4 289.3 222.3 286.1 221C284.7 220.4 283.4 219.6 282.3 218.6C280.4 216.9 278.8 214.9 277.6 212.7C274.8 207.8 273.1 202.6 272.2 197C272.2 196.8 272.1 196.7 272.1 196.2C272 196.6 271.9 196.7 271.8 196.9C271.4 199.9 270.9 202.9 270.6 205.9C270.3 209 270.5 212.1 270.8 215.2C271.2 219.1 272.5 222.7 274.8 226C276 227.7 277.1 229.4 278.1 231.2C278.5 231.8 278.9 232 279.6 232.1C281.3 232.3 282.9 232.3 284.5 231.8C286.4 231.2 288.3 230.4 290.1 229.4C291.6 228.6 293.1 227.9 294.6 227.3C298.7 225.8 301.8 229 302.2 231.7C302.5 233.4 302 234.9 301.4 236.4C301.2 237 300.8 237.5 300.5 238C298.6 240.8 296.6 243.7 294.7 246.5C294.5 246.9 294.2 247.2 293.9 247.6C294.2 248 294.5 248.4 294.8 248.9C296.2 251.2 296.1 253.3 294.3 255.2C293.4 256.1 292.4 257 291.3 257.7C289.7 258.8 288 259.7 286.3 260.7C284.6 261.7 282.8 262.4 280.7 261.4C280.2 262.3 279.7 263.1 278.8 263.5C277.8 264 276.7 264.2 275.6 264.3C273.7 264.4 271.9 264.1 270.2 263.4C267.7 262.3 265.1 261.7 262.4 261.5C260.8 261.3 259.3 260.9 257.8 260.2C256.5 259.5 255.4 258.5 255.2 257C255.1 256.2 255.2 255.3 255.5 254.6C256 252.9 257 251.5 258.2 250.2C259.4 249 260.6 247.9 261.9 246.8C263.7 245.2 265.6 243.8 267.1 241.9C268.1 240.7 268.9 239.3 269.8 238C270.1 237.6 270.1 237.2 270 236.7C269 232.4 268 228.1 267.6 223.7C267.3 219.8 267.3 215.8 267.5 211.9C267.8 206.9 268.6 202 269.4 197.1C269.9 194 270.3 190.8 270.8 187.7C270.8 187.4 270.8 187 270.7 186.6C270.6 186.9 270.5 187.2 270.3 187.6C268.6 192.6 266.5 197.5 264 202.2C263.6 203 263.3 203.9 263.2 204.8C262.1 212.8 260.7 220.8 258.7 228.6C257.4 233.7 255.2 238.5 252.7 243.1C250.2 247.9 248 252.8 246.5 258C245.5 261.3 244.2 264.5 242.3 267.5C241.5 268.7 240.6 269.8 239.7 270.8C237.9 272.8 235.5 273.6 232.8 273.5C229.5 273.3 226.2 272.7 223 271.8C222.1 271.5 221.1 271.2 220.2 270.9C219.9 270.8 219.6 270.6 219.3 270.5C217.6 269.7 216.8 267.9 219.1 266.5C223.2 264 226.9 261.1 230.8 258.3C233.8 256.2 236.8 253.9 239.8 251.7C242.9 249.4 245.8 246.8 248.4 243.9C252 239.8 254.8 235.2 256.2 229.9C256.2 229.8 256.3 229.6 256.2 229.4C256 229.7 255.7 229.9 255.5 230.2C252.3 234 248.8 237.5 244.4 239.9C240.2 242.1 235.9 243.4 231.1 243.2C230.6 243.2 230.2 243.1 229.6 243.1C227.7 245.3 225.7 247.5 225 250.5C224.8 251.4 224.7 252.3 224.6 253.3C224.5 255 226.7 256.1 228 255.3C229.3 254.5 229.9 253.4 230.2 252C230.3 251.3 230 250.9 229.3 250.6C229 251 228.7 251.3 228.5 251.7C228 252.5 227.5 252.7 227 252.5C226.4 252.3 226.3 251.7 226.6 250.8C226.7 250.6 226.7 250.5 226.8 250.3C227.4 249 228.7 248.2 229.8 248.3C231.2 248.5 232.4 249.9 232.4 251.3C232.6 253.9 230.2 257.2 227.7 257.9C225.2 258.6 222.5 256.8 222 254.2C221.7 252.8 222 251.4 222.3 250C222.4 249.5 222.6 249 222.8 248.4C222.5 248.6 222.3 248.7 222.1 248.8C220.6 250 219.1 251.3 217.6 252.5C215.8 254 214.9 256 214.5 258.2C214.3 259.4 214.4 260.6 214.9 261.7C215.3 262.5 215.9 263 216.8 263.1C217.7 263.1 218.3 262.6 218.6 261.8C218.8 261.3 218.9 260.8 218.9 260.2C218.9 259.5 218.5 259.2 217.9 259.2C216.9 259.2 216.6 259 216.4 258.5C216.3 257.9 216.8 257.3 217.5 257C218.2 256.7 218.9 256.9 219.6 257.2C221 258 221.7 259.7 221.2 261.4C221 262 220.8 262.6 220.5 263.1C219.7 264.6 218.5 265.5 216.7 265.5C214.9 265.5 213.5 264.6 212.6 263.1C211.6 261.2 211.4 259.2 211.8 257.2C212 256 212.5 254.8 212.9 253.5C212.7 253.6 212.5 253.7 212.3 253.9C207.6 257.5 202.9 261.2 198.6 265.2C196.5 267.2 194.5 269.3 192.9 271.7C190.7 274.8 189.2 278.2 188.6 281.9C188.2 284.6 188.3 287.2 189.3 289.8C191 294.1 196.2 297.5 201.9 294.4C205.1 292.7 207.2 290.1 208.5 286.8C209 285.6 209.1 284.3 208.8 283C208.3 280.7 206.1 279.3 203.8 280C201.5 280.6 200.2 282.2 200 284.6C200 285 200 285.3 200 285.7C199.9 286.3 199.5 286.7 199 286.8C198.5 286.9 198 286.6 197.8 286.1C197.7 285.9 197.7 285.8 197.6 285.6C197.5 284.5 197.5 283.4 197.8 282.3C199 278.6 203.7 276.3 207.3 277.7C209.9 278.7 211.3 280.6 211.6 283.3C211.8 284.6 211.7 286 211.3 287.3C209.6 292.4 206.2 296.1 201.1 297.9C195.2 300 189.1 296.5 186.9 291.3C185.2 287.3 185.2 283.2 186.4 279.1C187.8 273.8 190.8 269.5 194.6 265.6C194.9 265.3 195.3 264.9 195.6 264.6C195.6 264.5 195.5 264.5 195.5 264.4C194.7 264.8 193.8 265.2 193.1 265.7C189.7 267.8 186.3 270 182.9 272C182.1 272.5 181.5 273.1 181.1 274C179.8 276.7 179 279.6 178.3 282.5C177.5 285.7 176.9 288.8 176.1 292C175.4 295.3 174 298.3 172.7 301.4C172 303.1 170.8 303.6 169 302.9C167.1 302.2 165.6 300.9 164.3 299.3C162 296.3 161.1 292.8 161.1 289C161.1 284.4 162.9 280.5 166 277.2C167.6 275.4 169.5 273.9 171.5 272.4C171.7 272.3 171.9 272.1 172.2 271.9C171.7 271.7 171.3 271.8 170.9 271.8C167.4 272.2 163.9 272.1 160.4 271.8C156.5 271.5 152.6 271.2 148.7 271C147.8 270.9 146.8 271.1 145.9 271.3C143 271.9 140.7 274.8 140.9 277.8C141.1 281.4 144.9 284.6 148.5 284C150.1 283.8 151.5 282.5 151.8 281.1C152.2 279.4 151 278.2 149.3 278.5C148.8 278.6 148.2 278.7 147.7 278.8C147 278.9 146.6 278.6 146.4 278C146.3 277.5 146.5 277.1 147 276.7C149 275.5 150.5 275.5 152 276.6C153.7 277.8 154.4 279.5 153.9 281.5C153.3 284.2 150.9 286.1 148.1 286.4C143.7 286.8 139.3 283.3 138.6 278.8C137.9 274.6 140.9 270.2 145.3 269.1C147.5 268.6 149.7 268.6 151.9 268.8C155.8 269 159.6 269.4 163.5 269.5C169.7 269.7 175.8 268.7 181.7 266.8C185.2 265.7 188.6 264.4 191.9 262.8C192.2 262.6 192.6 262.4 192.9 262.3C193 262.3 193 262.3 193 262.3ZM46.7 147.2C46.6 151.5 46.9 155.9 47.3 160.3C47.9 165.9 48.8 171.5 50.3 176.9C52.9 186.7 57.1 195.9 62.1 204.7C69 216.8 77.7 227.4 88.4 236.4C102.3 248.1 118.2 255.7 136.1 259.1C141.8 260.2 147.6 261.2 153.4 261.8C157.9 262.3 162.5 262.8 167 262.6C170 262.5 173 262.3 176 262.1C182.2 261.5 188.2 260.2 194 258.1C200.6 255.7 206.8 252.5 212.9 249.1C221.4 244.3 229.5 238.7 236.7 232C244.8 224.5 251.5 215.9 257.2 206.5C266.6 191.3 271 174.7 271.2 156.9C271.2 154.2 271.1 151.5 271.1 148.8C271 144.5 270.5 140.3 269.9 136.1C268.8 128.4 266.9 120.9 264.3 113.5C258.8 98 250.6 84.1 238.8 72.6C229.9 64 219.9 56.8 208.7 51.4C195.4 44.9 181.3 41.3 166.6 40.3C157.6 39.7 148.8 40.4 140 42.2C133 43.6 126.3 45.9 119.6 48.3C110.3 51.7 101.7 56.5 93.8 62.6C86.2 68.5 79 75 72.1 81.8C66.9 86.9 62.5 92.4 58.6 98.5C55.9 102.7 53.7 107.2 52.4 112C51.4 116.1 50.3 120.2 49.2 124.4C48.8 126.1 48.2 127.8 47.9 129.5C47 135.5 46.6 141.3 46.7 147.2ZM72.2 30.6C71.9 31.5 71.6 32.3 71.4 33.2C69.6 39 69.1 44.9 70.1 51C70.7 54.4 71.3 57.8 71.8 61.1C72.3 64.1 72.4 67.2 72 70.3C72 70.6 72 70.9 72 71.2C72.3 71 72.4 70.7 72.4 70.5C72.9 68.4 73.6 66.3 74 64.1C74.7 60.1 74.9 56.1 74.1 52C73.8 50.5 73.5 49.1 73.2 47.6C73 46.6 73.3 46.2 73.9 46C74.5 45.8 74.9 46.2 75.3 47.1C76.3 49.7 76.7 52.4 77 55.1C77.4 59.5 76.8 63.8 75.6 68.1C75.5 68.4 75.5 68.7 75.4 69.1C75.6 69.1 75.7 69 75.7 68.9C77.8 66 79.8 63.1 81.8 60.1C82.6 58.8 83.3 57.5 84 56.1C84.9 54.1 85.3 52 85.2 49.8C85 46.7 83.9 44 82.3 41.4C80.1 37.6 77 34.6 73.6 31.8C73.1 31.4 72.7 31 72.2 30.6ZM160.1 35.9C163.9 36.1 167.6 36.2 171.3 36.6C179.3 37.4 187 39.1 194.7 41.5C197.2 42.3 199.7 42 202.1 40.9C203.1 40.4 203.8 39.7 204.3 38.8C204.8 37.9 205.3 37 204.7 35.9C204.1 34.9 203 34.7 201.9 34.6H201.8C201 34.6 200.4 34.9 199.9 35.6C199.4 36.4 199.4 36.6 200.3 37.2C201.1 37.7 201.1 38.4 200.3 38.9C199.9 39.1 199.4 39.2 199 39.2C198.1 39.1 197.4 38.3 197.2 37.4C196.6 35.1 198.7 32.4 200.6 32.2C202.1 32 203.4 32.2 204.7 32.9C206.8 34 207.6 36.1 206.8 38.4C206 40.7 204.4 42.2 202.2 43.1C201.8 43.3 201.4 43.4 200.7 43.7C206.1 45.7 211.1 48 216.1 50.8C215.9 50.2 215.8 49.9 215.7 49.6C214.9 47.3 213.6 45.3 212.3 43.2C211.4 41.8 210.6 40.3 209.9 38.7C208.9 36.5 208.7 34.2 209.4 31.8C209.4 31.8 209.4 31.7 209.3 31.5C208.9 31.5 208.6 31.4 208.2 31.4C207.2 31.4 206.3 31.3 205.3 31.3C199.3 31.2 193.3 31.5 187.4 32.2C183.1 32.7 178.7 33.1 174.4 33.7C170.3 34.3 166.2 35 162.1 35.6C161.5 35.7 160.8 35.8 160.1 35.9ZM275.9 180.4C276.3 182.4 277 184.3 278 186C280 189.6 283 192.2 286.4 194.4C290.9 197.3 295.8 199.1 300.8 200.8C300.9 200.8 301 200.8 301.2 200.8C301.3 200.4 301.5 200 301.6 199.5C301.8 198.3 302.1 197.1 302.2 195.9C302.6 191.6 301.3 188.1 297.8 185.6C296.6 184.7 295.3 183.9 294 183.3C291.9 182.3 289.6 181.4 287.4 180.5C283.1 178.7 279.1 176.3 276.1 172.6C276.1 172.5 275.9 172.5 275.8 172.5C275.8 172.8 275.9 172.9 275.9 173.1C276.7 175.3 277.5 177.6 278.4 179.8C280 183.4 282.5 186.2 286 188.2C287.6 189.1 289.1 190.2 290.7 191.2C290.9 191.4 291.2 191.5 291.4 191.7C291.7 192 291.8 192.4 291.6 192.8C291.4 193.2 291 193.4 290.5 193.3C290.1 193.2 289.8 193 289.4 192.8C287.6 191.8 285.8 190.8 284.1 189.7C281 187.8 278.6 185.2 276.9 182C276.5 181.4 276.2 180.9 275.9 180.4ZM117.9 267.1C117.8 267 117.8 267 117.7 266.9C117.4 267 117.1 267.1 116.9 267.3C115.2 268.4 113.3 269.4 111.7 270.6C108.5 272.9 106.3 276 105.2 279.8C104.5 282.1 103.7 284.4 103 286.7C102.5 288.5 102 290.3 101.5 292.1C101.2 293.2 101.5 293.6 102.6 293.6C103.4 293.6 104.3 293.6 105.1 293.4C109.5 292.7 113.2 290.7 115.5 286.8C116.1 285.9 116.6 284.9 117.1 284C118 282.1 118.9 280.2 119.8 278.3C121.5 274.7 123.4 271.3 125.7 268.1C126.5 267 127.4 266 128.4 264.8C126.9 265.3 125.6 265.7 124.3 266.3C120.2 267.9 116.8 270.4 114.6 274.3C113 277.1 111 279.7 109.9 282.8C109.7 283.3 109.2 283.5 108.6 283.4C108.1 283.3 107.8 282.8 107.9 282.3C107.9 282 108 281.7 108.1 281.5C109.5 278.7 110.9 275.9 112.4 273.1C113.6 270.8 115.3 268.9 117.4 267.3C117.6 267.2 117.7 267.1 117.9 267.1ZM272 239.3C271.3 239.1 271.3 239.6 271.2 239.9C270.4 241.8 269.3 243.5 267.8 244.9C266.5 246.1 265.1 247.3 263.7 248.4C262.4 249.5 261 250.6 259.8 251.8C259 252.6 258.3 253.6 257.8 254.6C256.7 256.7 257.2 258.1 259.5 258.9C260.8 259.4 262.1 259.7 263.5 259.8C265.9 260.1 268.3 260.6 270.5 261.5C271.1 261.7 271.6 261.9 272.2 262.1C273.7 262.5 275.2 262.8 276.8 262.4C278.4 262.1 278.8 261.5 278.8 260C278.8 259.7 278.8 259.3 278.7 259C278.5 257.8 278.3 256.6 278 255.4C276.8 250.8 275.5 246.3 274.3 241.7C274.3 241.6 274.2 241.5 274.1 241.4C274.1 241.5 274 241.5 274 241.6C272.9 245.6 271.2 249.3 269.7 253.2C269.6 253.6 269.4 254 269.1 254.2C268.9 254.4 268.5 254.5 268.3 254.4C268.1 254.3 267.8 253.9 267.8 253.7C267.8 253.3 267.9 252.8 268 252.4C268.5 250.8 269 249.2 269.5 247.7C270.3 245.2 271.1 242.7 271.8 240.3C271.9 240 272 239.7 272 239.3ZM291.2 132.8C292 133.7 292.8 134.6 293.7 135.4C296.7 138 300.1 139.8 304.2 140.1C306.5 140.3 308.9 140.3 311.2 140.3C311.3 140.3 311.5 140.2 311.6 140.1C311.6 139.9 311.6 139.8 311.6 139.6C311.5 139.3 311.5 139 311.4 138.6C310.7 136 309.6 133.5 308.1 131.2C306.2 128.2 303.6 126 300.3 124.6C297.9 123.6 295.4 123 292.9 122.5C289.7 121.9 286.5 121.2 283.6 119.7C283.5 119.6 283.3 119.7 283.1 119.6C283.5 120.3 283.9 120.9 284.2 121.6C286.7 126.1 290.2 129.7 294.6 132.4C296 133.3 297.5 134.2 298.9 135C299.5 135.3 300 135.7 300.5 136C301 136.4 301.2 136.9 300.9 137.3C300.6 137.7 300.3 137.7 299.7 137.3C296.9 136 293.9 134.6 291.2 132.8ZM290.1 136.6C290.1 136.9 290.2 137.2 290.2 137.4C291 142.1 291.2 146.9 291.5 151.7C291.5 151.8 291.5 152 291.5 152.1C291.4 152.6 291.1 153 290.6 153C290.1 153 289.8 152.8 289.6 152.4C289.5 152.1 289.4 151.7 289.4 151.4C289 148.1 288.7 144.7 288.3 141.4C287.9 137.8 287.1 134.4 285.8 131C285.7 130.7 285.5 130.4 285.3 130C285.3 130.3 285.2 130.4 285.3 130.5C285.7 133.6 285.5 136.8 285.5 139.9C285.5 143.4 285.4 146.8 285.6 150.3C285.9 155.7 286.8 161.1 287.7 166.5C287.7 166.8 287.9 167.1 287.9 167.4C289.1 167.4 290.1 167 291.4 166C294.1 164 296 161.3 296.9 158.1C297.6 155.6 297.6 153 297.2 150.5C296.2 145.2 293.6 140.7 290.1 136.6ZM249.9 44C251.4 44.6 252.8 45.1 254.3 45.3C256.4 45.5 258.4 45.3 260.4 45C261.3 44.9 262.2 44.7 263.1 44.6C264.3 44.5 264.8 44.7 264.8 45.4C264.9 46 264.5 46.4 263.4 46.6C261.9 46.9 260.4 47.2 258.9 47.3C256.4 47.5 253.9 47.6 251.3 47.1C251.1 47.1 250.9 47 250.6 47C251.5 47.6 252.5 48 253.4 48.4C257 50.2 260 52.5 261.3 56.6C261.3 56.6 261.4 56.6 261.5 56.8C262.2 56.5 262.9 56.3 263.6 55.9C266.8 54.2 269 51.5 270.7 48.4C271 47.9 271.2 47.3 271.4 46.7C272 44.9 271.5 43.6 269.8 42.7C269.1 42.3 268.3 42 267.6 41.5C266 40.6 265.1 38.8 266.8 37C267.1 36.7 267.3 36.4 267.5 36.1C267.6 35.9 267.7 35.7 267.8 35.5C266.9 34.9 266.2 34.8 265.1 35.3C263.5 36 262 36.9 260.6 38.1C259.5 39 258.4 39.9 257.3 40.7C256 41.6 254.5 42.2 252.9 42.3C251.8 42.4 250.7 42.7 249.6 42.8C249.9 43.3 249.9 43.6 249.9 44ZM242.1 49.3C239.3 47.8 237.1 45.7 235.2 43.4C233.4 41.3 231.7 39.3 229.9 37.3C229.5 36.9 229.1 36.4 228.6 36.1C227.5 35.4 226.3 34.8 225.2 34.2C224.2 33.7 222.9 33.5 222.2 33.6C222.5 33.9 222.7 34.1 222.9 34.3C226 37.3 227.7 41 227.6 45.4C227.5 48.2 226.8 50.8 225.7 53.3C225.3 54.1 225 54.9 224.6 55.8C226.2 56.9 227.8 58.1 229.4 59.2C229.6 59 229.8 58.9 229.9 58.8C231.4 57.3 233.1 56.3 235.1 55.5C235.9 55.2 236.7 54.8 237.5 54.4C239.6 53.4 241.1 51.7 242.1 49.3ZM63.9 267.5C63.9 268.5 63.9 269.4 63.9 270.3C63.7 273 64.5 275.3 66.7 277.1C68.5 278.6 70 280.4 71.3 282.4C71.6 282.9 72.1 283.5 72.5 283.9C73.6 285.1 74.2 285.1 75.2 283.9C75.7 283.3 76.1 282.8 76.5 282.1C77.8 279.7 79.2 277.2 80.4 274.7C81.7 272.1 82.8 269.4 84.5 267C84.5 267 84.5 266.9 84.5 266.7C84.1 267 83.7 267.3 83.3 267.6C81.5 269.2 79.6 270.9 77.8 272.5C77.4 272.8 77 273.1 76.6 273.4C76.2 273.7 75.7 273.5 75.5 273.1C75.2 272.7 75.3 272.3 75.7 271.9C76 271.7 76.3 271.4 76.5 271.2C78.6 269.2 80.7 267.1 82.8 265.1C82.8 265.1 82.8 265 82.9 264.8C82.5 264.9 82.1 265 81.7 265.1C80.2 265.6 78.8 266.1 77.3 266.5C73.2 267.8 69 268.2 64.7 267.2C64.3 267.4 64.2 267.5 63.9 267.5ZM24 151C24.1 151 24.2 151 24.3 151.1C24.4 150.9 24.6 150.7 24.6 150.5C24.7 150 24.8 149.5 24.9 149C25.3 146 26 143.1 27.3 140.4C27.8 139.3 28.3 138.2 28.8 137.1C29.4 135.7 29.9 134.3 30.4 132.9C30.9 131.6 30.9 130.3 30.8 128.9C30.7 127.6 30.3 127.4 29 127.6C26.8 128 24.5 128.5 22.3 128.9C21 129.1 19.7 129.3 18.4 129.9C17.3 130.4 16.2 130.9 15.2 131.4C13.9 132.1 12.7 132.8 11.5 133.6C10.1 134.6 10 135.2 10.6 137C11.2 136.7 11.8 136.4 12.4 136.2C13.6 135.7 14.5 136 15.3 136.9C15.7 137.3 16 137.8 16.2 138.2C16.8 139.5 17.4 140.7 18 142C18.8 143.6 19.5 145.3 20.2 146.9C20.4 147.2 20.6 147.5 20.8 147.9C20.9 147.7 20.9 147.5 20.9 147.4C20.5 143.4 20.1 139.4 19.7 135.4C19.7 135.1 19.7 134.8 19.7 134.5C19.8 134 20.2 133.7 20.7 133.7C21.2 133.7 21.5 134 21.7 134.4C21.8 134.8 21.9 135.2 22 135.6C22.4 138.8 22.7 142 23.2 145.2C23.4 147.1 23.7 149.1 24 151ZM33.3 174.7C32.3 173.8 31.1 173.3 29.8 172.9C26.7 172 23.5 171.9 20.4 172.1C18.3 172.2 16.2 172.5 14 172.7C12.6 172.8 11.1 172.9 9.7 173.1C8.6 173.2 8.4 173.5 8.6 174.6C8.8 175.4 9 176.3 9.4 177C11.4 180.6 14.7 182.3 18.7 182.6C21.1 182.8 23.4 182.4 25.7 181.8C29.7 180.7 33.6 179.6 37.6 178.5C37.5 178.4 37.3 178.3 37.2 178.2C33.9 176.8 30.5 176.2 26.9 176.4C25.4 176.5 23.8 176.6 22.3 176.6C22 176.6 21.6 176.6 21.3 176.6C20.9 176.5 20.6 176.3 20.5 175.8C20.5 175.4 20.7 175.1 21.1 175C21.3 174.9 21.4 174.9 21.6 174.8C22.9 174.5 24.3 174.2 25.6 174.1C27.1 174 28.6 174 30 174.1C31.1 174.3 32.2 174.6 33.3 174.7ZM178.3 271.4C178.3 271.3 178.2 271.3 178.2 271.2C176.4 272.1 174.5 272.9 172.9 274.2C171 275.7 169.2 277.4 167.7 279.4C164.6 283.2 163.4 287.6 164.3 292.5C164.9 295.6 166.3 298.2 169 300C169.5 300.3 170 300.5 170.5 300.8C170.7 300.4 170.9 300.2 171 299.9C172.7 296.6 173.8 293.2 174.5 289.6C175.3 285.2 176.1 280.9 177.5 276.6C177.5 276.5 177.5 276.4 177.5 276.3H177.4C177.3 276.4 177.2 276.4 177.1 276.5C174.9 278.8 173 281.4 172 284.4C171.6 285.6 171.1 286.8 170.5 288C170.1 288.8 169.5 289.1 168.8 288.8C168.1 288.6 167.8 288 168 287.1C168.1 286.5 168.4 285.9 168.5 285.2C170 279.9 173 275.6 177.2 272.1C177.6 272 177.9 271.7 178.3 271.4ZM220.3 268.7C221 269 221.5 269.2 222 269.4C225.2 270.4 228.5 271 231.9 271.4C234.6 271.7 236.8 270.9 238.5 268.8C239.1 268.1 239.7 267.3 240.2 266.6C241.6 264.4 242.8 262 243.6 259.5C244.3 257.4 244.9 255.3 245.6 253.2C245.7 253 245.7 252.8 245.7 252.6C245.4 252.8 245.3 253 245.1 253.2C243.6 255.3 241.9 257.3 240 259.1C237.8 261.1 235.5 262.9 233.3 264.9C233.2 265 233.1 265 233 265.1C232.6 265.3 232.3 265.3 232 265C231.7 264.7 231.6 264.4 231.8 264C232.1 263.6 232.4 263.3 232.7 262.9C234.2 261.5 235.8 260.2 237.2 258.8C238.9 257.1 240.5 255.4 242.2 253.7C242.4 253.5 242.5 253.3 242.6 253.1C235.4 258.3 228.1 263.7 220.3 268.7ZM85 257.1C83.2 254.6 82.1 251.9 80.9 249.1C80.4 248 80 246.9 79.4 245.8C78.6 244.4 77.7 243 76.8 241.7C76.3 241.1 75.6 240.6 75 240.3C73.9 239.7 73 239.9 72.2 240.9C71.1 242.4 70 243.9 68.9 245.5C67.7 247.3 67.8 247.9 69.2 249.5C69.5 249.9 69.9 250.2 70.3 250.6C70.7 250.9 71 251.3 71.4 251.6C72.2 252.3 72.5 253.2 72.5 254.2C72.5 254.7 72.7 255.3 72.9 255.7C74 257.9 76 259 78.4 259.1C80.1 259.2 81.7 259.1 83.4 259.2C83.6 259.2 83.8 259.1 84.1 259.1C80.6 257 78.2 254 76 250.8C75.8 250.5 75.5 250.2 75.5 249.9C75.5 249.6 75.6 249.2 75.8 249.1C76 248.9 76.4 248.9 76.7 249C77 249.1 77.3 249.4 77.5 249.7C78.6 251 79.8 252.3 80.9 253.6C82.1 255 83.4 256.2 85 257.1ZM279.5 240.1L279.4 240.2C279.5 240.5 279.6 240.7 279.7 241C280.7 243 281.7 245 282.8 246.9C283.8 248.7 284.8 250.5 285.9 252.2C286.1 252.5 286.2 252.9 285.9 253.2C285.6 253.5 285.3 253.6 284.9 253.4C284.6 253.2 284.3 253.1 284.1 252.8C283.7 252.4 283.4 251.9 283.1 251.5C282 249.7 280.9 247.9 279.7 246.1C278.3 243.8 277 241.5 276.1 238.9C276 238.7 275.9 238.6 275.8 238.4C275.7 238.4 275.7 238.4 275.6 238.5C275.6 238.8 275.6 239 275.6 239.3C276 240.7 276.3 242.1 276.7 243.5C278 247.7 279.3 252 280.1 256.4C280.3 257.5 280.5 258.6 280.7 259.7C281.7 260.2 282.7 260.1 283.6 259.7C286.2 258.4 288.8 256.9 291.1 255.2C291.4 255 291.7 254.7 292 254.4C293.3 252.9 293.4 251.8 292.1 250.3C291.2 249.3 290.2 248.4 289.2 247.6C287.6 246.4 285.9 245.4 284.3 244.2C282.8 243.1 281.4 242 280 240.9C280 240.5 279.7 240.3 279.5 240.1ZM43.9 154.4C43.5 154.5 43.1 154.5 42.8 154.6C40.5 155.2 39.1 156.8 38.4 159C38 160.2 37.8 161.5 37.8 162.8C37.6 167.9 38.9 172.6 41.7 176.9C42.6 178.3 43.5 179.6 44.5 180.9C46.7 183.8 48.9 186.7 51.2 189.6C51.2 189.7 51.3 189.7 51.5 189.8C48.6 182.4 46.7 175 45.5 167.3C45.1 167.3 44.7 167.2 44.4 167.2C41.9 166.9 39.7 165 39.2 162.8C38.9 161.6 39.3 160.5 40.2 159.6C41 158.8 42 158.6 43.1 158.7C43.7 158.8 44.3 159.3 44.3 159.7C44.3 160.1 44 160.6 43.3 160.8C43 160.9 42.6 161 42.3 161.1C41.7 161.4 41.5 161.8 41.6 162.4C41.9 163.8 43.6 165.1 45.1 165C44.6 161.5 44.2 158.1 43.9 154.4ZM21.6 153L21.7 152.9C21.3 152.4 20.9 151.8 20.5 151.3C19.4 149.8 18.4 148.3 17.6 146.6C17 145.3 16.5 144 15.9 142.7C15.2 141.3 14.6 139.8 13.9 138.4C13.4 137.5 13.2 137.5 12.3 137.9C12.1 138 12 138.1 11.8 138.2C9.8 139.7 7.7 141.1 5.7 142.7C4.1 143.9 3.1 145.6 2.3 147.4C1.8 148.5 2 149.1 2.9 149.9C4 150.9 5.3 151.5 6.8 151.7C8.5 151.9 10.2 152.1 11.9 152.1C14.8 152.2 17.4 153 19.7 154.6C19.8 154.7 20 154.7 20.3 154.8C20.2 154.6 20.2 154.5 20.2 154.5C17.2 152 14.2 149.4 10.9 147.3C10.2 146.8 9.9 146.4 10.2 145.8C10.5 145.3 11.1 145.1 11.8 145.4C12.2 145.6 12.6 145.9 13 146.1C15.8 147.9 18.3 150.1 20.9 152.2C21.1 152.5 21.3 152.7 21.6 153ZM68.3 251.9C67.2 253.3 65.9 254 64.4 254.7C63.4 255.2 62.4 255.6 61.4 256C60.7 256.3 60 256.7 59.3 257.1C57.6 258.3 57.3 259.6 58.4 261.4C59.3 262.9 60.7 263.8 62.3 264.4C65.8 265.8 69.4 266 73.1 265.4C76 264.9 78.7 263.9 81.4 263C81.7 262.9 82 262.8 82.3 262.6C80.4 262.6 78.7 262.7 76.9 262.7C73.3 262.6 69.9 261.7 66.4 261C66.2 261 65.9 260.9 65.8 260.8C65.6 260.6 65.4 260.3 65.5 260.1C65.5 259.9 65.9 259.7 66.1 259.6C66.3 259.5 66.6 259.6 66.8 259.6C68 259.8 69.3 260 70.5 260.2C71.7 260.4 72.9 260.6 74.3 260.6C73.8 260.3 73.5 260.1 73.3 259.8C71.6 258.4 70.4 256.7 70.1 254.6C70 253.8 69.7 253.3 69.2 252.8C69 252.6 68.7 252.3 68.3 251.9ZM99.8 46.9C101.1 46.8 102.4 46.6 103.6 46.8C105.6 47 107.6 47.4 109.6 47.8C110.1 47.9 110.6 47.9 111.1 47.7C117 45.1 123 42.9 129.1 41C129.3 40.9 129.5 40.8 129.8 40.7C120.9 34.8 111.5 36.4 104.5 41.8C104.9 41.7 105.1 41.6 105.3 41.6C107.1 40.9 109 40.5 110.9 40.3C112.9 40.1 114.8 40.3 116.7 40.7C117.4 40.9 117.7 41.3 117.7 41.8C117.6 42.3 117.2 42.7 116.5 42.7C116.2 42.7 116 42.7 115.7 42.7C114.8 42.7 113.9 42.6 113 42.5C108.4 42.4 104.2 43.8 100.4 46.4C100.1 46.5 100 46.7 99.8 46.9ZM66.2 221.7C65.8 221.4 65.5 221.2 65.2 221C61.1 218.3 56.6 217 51.9 216.1C48.3 215.4 44.7 215.3 41.1 215.1C40.7 215.1 40.4 215.1 40.1 215.1C39.7 215.6 39.8 216.1 39.9 216.5C40.3 218.3 41.4 219.7 42.8 220.8C45 222.7 47.6 223.7 50.4 224.3C53.1 224.9 55.8 225.1 58.5 225.1C61.8 225.2 65.1 225.2 68.3 225.3C68.4 225.3 68.5 225.3 68.8 225.2C68.4 225 68.2 224.9 68 224.8C64.2 223.1 60.2 222 56.1 221.2C53.5 220.7 51 220.1 48.4 219.5C47.4 219.3 47.1 218.8 47.2 218.2C47.4 217.7 47.9 217.5 48.8 217.6C50.5 217.9 52.2 218.2 53.9 218.6C57.9 219.4 61.8 220.1 65.6 221.6C65.7 221.7 65.8 221.7 66.2 221.7ZM228.3 10.1C224.5 11.6 215.6 22.4 213.6 28C214.4 27.6 215.1 27.3 215.8 26.9C217.4 25.9 218.8 24.7 220 23.3C221.3 21.7 222.7 20.1 224.1 18.5C224.3 18.3 224.5 17.9 224.8 17.8C225.1 17.7 225.5 17.7 225.8 17.9C226.1 18.1 226.2 18.5 226 18.8C225.9 19.1 225.7 19.4 225.5 19.6C224.7 20.7 223.9 21.8 223 22.9C221.5 24.8 220 26.7 218 28.1C217.9 28.2 217.9 28.3 217.8 28.4C223 28.4 227.7 25.5 229.5 21C231.2 16.9 230.3 12.1 228.3 10.1ZM215.3 32.5C215.2 32.6 215.2 32.7 215.1 32.8C215.4 33 215.6 33.2 215.9 33.4C217.6 35.1 218.9 37.2 220.2 39.2C220.6 39.9 220.5 40.4 220 40.7C219.6 41 219.1 40.9 218.6 40.4C218.3 40.1 218 39.7 217.7 39.3C216 37.3 214.4 35.1 212.4 33.3C212.2 33.1 211.9 32.9 211.6 32.6C211.6 33.5 211.5 34.2 211.6 34.9C211.8 36 212.1 37.1 212.6 38.1C213.2 39.5 214 40.8 214.8 42.1C216.7 45.2 218.4 48.4 219.2 52.1C219.2 52.3 219.4 52.6 219.5 52.7C220.3 53.3 221.2 53.8 222.1 54.3C223 52.3 223.9 50.4 224.3 48.3C224.5 47.1 224.7 45.9 224.7 44.7C224.6 41.8 223.5 39.2 221.5 37C219.7 35 217.5 33.8 215.3 32.5ZM284.1 235C284.2 235 284.3 235.1 284.4 235.1C287 235.7 289.6 236.3 292.2 236.9C292.6 237 293 237.1 293.3 237.3C293.8 237.6 294 238 293.9 238.6C293.8 239.1 293.4 239.4 292.9 239.5C292.5 239.5 292.1 239.5 291.7 239.4C290.1 239.2 288.6 238.9 287 238.7C284.5 238.4 282.1 237.8 279.9 236.6C279.7 236.5 279.5 236.5 279.2 236.4C279.8 237 291.6 245.7 292.2 245.9C292.9 244.7 293.6 243.6 294.4 242.4C295.6 240.5 296.8 238.7 297.9 236.8C298.6 235.7 299 234.4 299.3 233.1C299.7 230.8 297.4 228.7 295.1 229.8C294.2 230.2 293.2 230.7 292.3 231.2C289.7 232.6 287.1 234.2 284.1 235ZM246.9 50.4C246.9 50.8 246.9 51 246.9 51.2C247 52.4 247 53.5 247.1 54.7C247.1 56.8 247.1 58.8 247.1 60.9C247.1 62.1 247.3 63.3 247.6 64.5C247.8 65.5 248.4 65.8 249.4 65.6C250.2 65.5 251 65.2 251.6 64.8C253.5 63.8 255.3 62.6 257.1 61.5C257.4 61.3 257.8 61.1 258.1 60.8C259.5 59.6 259.8 58.3 259.1 56.6C258.6 55.6 258 54.6 257.3 53.8C255 51.4 252 50.1 249.1 48.7C249.1 48.8 249.1 48.9 249.1 49C251 51.7 252 54.9 253.4 57.8C253.5 58 253.6 58.2 253.6 58.4C253.7 58.8 253.7 59.1 253.3 59.3C252.9 59.5 252.6 59.4 252.3 59.1C251.9 58.6 251.6 58 251.2 57.5C250 55.4 248.8 53.4 247.6 51.3C247.5 51.2 247.2 50.9 246.9 50.4ZM125.7 22.9C127.7 24.1 129.5 25.2 131.3 26.2C132 26.6 132.6 27 133.3 27.3C134.1 27.7 135 28 135.8 28.2C138 28.7 139.5 28 140.6 26C141.5 24.4 141.7 22.6 141.5 20.7C141.4 19.5 140.7 18.6 139.8 17.9C139.3 17.5 138.7 17.2 138.2 16.8C136.9 15.9 135.6 15 134.3 14.1C134.2 14 134.1 14 133.8 13.8C132.9 15.5 131.4 16.6 129.9 17.6C128.6 18.4 127.4 19.3 126.1 20.1C125.9 20.3 125.6 20.5 125.4 20.6C125.8 20.6 126.2 20.6 126.5 20.5C128.9 19.8 131.3 19.8 133.8 20.1C134.2 20.2 134.6 20.3 135 20.6C135.3 20.8 135.5 21.2 135.3 21.7C135.1 22.1 134.8 22.3 134.4 22.3C132.5 22.3 130.7 22.3 128.8 22.3C127.8 22.5 126.8 22.7 125.7 22.9ZM242.8 52.9C242.6 53 242.5 53 242.5 53C242.4 53.2 242.2 53.3 242.1 53.5C241.1 54.7 240 55.6 238.6 56.3C237.6 56.8 236.6 57.3 235.6 57.7C234.2 58.3 232.9 59 231.6 59.9C231.4 60 231.3 60.2 231 60.4C231.2 60.5 231.3 60.6 231.3 60.6C234.4 63.2 237.4 65.8 240.5 68.4C240.9 68.7 241.2 68.8 241.7 68.7C243.2 68.3 244.5 67.6 245.9 66.7C244.9 65.2 244.8 63.5 244.7 61.8C244.6 60.1 244.7 58.4 244.6 56.7C244.6 56.4 244.6 56 244.6 55.7C243.9 57 243.3 58.2 242.8 59.5C242.1 61.3 241.6 63.1 241 64.9C240.9 65.3 240.7 65.5 240.3 65.5C239.9 65.5 239.5 65.3 239.5 64.9C239.4 64.5 239.4 64 239.6 63.6C240.4 60.8 241.3 58.1 242.1 55.3C242.2 54.7 242.5 53.8 242.8 52.9ZM122.7 6.7C121.8 6.3 121 6.1 120.3 5.7C118.1 4.7 115.9 4.4 113.5 4.7C112.5 4.8 111.6 5.1 110.7 5.5C109.4 6.1 109.1 7.10001 109.9 8.30001C110.5 9.20001 111.2 9.9 112 10.6C113.6 12.2 115.3 13.7 117 15.2C117.1 15.3 117.3 15.4 117.5 15.6C117.4 15.3 117.4 15.2 117.4 15C116.9 13.3 116.4 11.5 115.8 9.80001C115.5 8.80001 115.6 8.4 116.1 8.2C116.6 8 116.9 8.30001 117.3 9.30001C118.1 11.4 118.8 13.5 119.6 15.8C120.4 12.7 121 9.6 122.7 6.7ZM31.6 144.1C31.6 144.1 31.7 144.1 31.7 144.2C33.2 143.1 34.7 142 36.2 140.9C37.1 140.2 38.1 139.6 38.9 138.9C39.5 138.4 40 137.9 40.5 137.3C41 136.7 41.1 136 40.9 135.2C40.6 133.9 40 132.8 39 132C37.4 130.7 35.4 130.4 33.4 130.2C33.3 133 32.2 135.4 31.1 137.9C30.4 139.6 29.6 141.3 28.9 142.9C28.6 143.6 28.4 144.3 28.2 145C28.4 144.9 28.5 144.8 28.6 144.6C30.2 142.2 31.7 139.7 33.3 137.3C33.4 137.1 33.6 136.9 33.7 136.7C34.1 136.2 34.7 136.1 35.1 136.3C35.5 136.6 35.6 137.1 35.4 137.7C35.3 138 35.1 138.3 34.9 138.7C34.2 139.8 33.5 140.9 32.9 142C32.4 142.7 32 143.4 31.6 144.1ZM123 19.9L123.1 20C123.2 19.9 123.4 19.9 123.5 19.8C125.6 18.3 127.6 16.7 129.7 15.2C130.7 14.5 131.6 13.6 132 12.4C132.4 11.3 132.3 10.3 131.5 9.5C130.3 8.4 129.1 7.3 127.9 6.2C127.4 5.8 126.9 5.8 126.4 6.1C125.5 6.7 124.8 7.40001 124.4 8.30001C124 9.20001 123.6 10.1 123.3 11C122.5 13.4 121.9 15.8 121.1 18.3C121.1 18.5 121.1 18.6 121.1 18.8C121.4 18.6 121.5 18.4 121.6 18.2C122.6 16.2 123.5 14.2 124.5 12.2C124.7 11.9 124.9 11.5 125.1 11.3C125.3 11.2 125.7 11.1 125.9 11.2C126.1 11.3 126.2 11.6 126.2 11.8C126.2 12.2 126.1 12.6 125.9 12.9C125 15 124.1 17 123.2 19.1C123.3 19.3 123.1 19.6 123 19.9ZM250.4 232.3C250.1 232.4 249.8 232.6 249.5 232.7C246.8 233.8 243.9 234.5 241 234C240.3 233.9 239.9 234.1 239.4 234.5C237.1 236.5 234.8 238.5 232.4 240.5C232.3 240.6 232.1 240.8 231.9 241C237.3 241.3 246.6 237 250.4 232.3ZM259.6 210.2C256.5 214.6 253.4 218.9 250.2 223.3C251.9 223.5 253.5 223.6 255.2 223.8C256 223.9 256.4 223.5 256.8 222.9C258.9 219 259.1 214.6 259.6 210.2ZM89.9 60.4C90 60.5 90 60.5 89.9 60.4C92.7 58.5 95.4 56.5 98.1 54.7C100.9 52.9 103.8 51.2 106.8 49.4C106.4 49.3 106.2 49.2 105.9 49.2C103.6 48.8 101.2 48.6 98.9 49.1C98.5 49.2 98.1 49.3 97.9 49.6C97.4 50.2 96.9 50.8 96.4 51.5C94.4 54.2 92.4 57 90.3 59.7C90.3 59.9 90.1 60.2 89.9 60.4ZM254.9 225.5C253 225.3 251.2 225.1 249.4 224.9C248.8 224.8 248.5 225 248.1 225.4C246.4 227.3 244.6 229.2 242.9 231C242.7 231.2 242.6 231.4 242.3 231.7C247 232.2 252.4 229.2 254.9 225.5Z" fill="#C4BFBF"/>
</svg>
